Coordinates
version=1
nRows=10
nColumns=33
inDegrees=yes

Units are S.I. units (second, meters, Newtons, ...)
Angles are in degrees.

endheader
time	ground_thorax_rot_x	ground_thorax_rot_y	ground_thorax_rot_z	ground_thorax_tx	ground_thorax_ty	ground_thorax_tz	clav_prot_r	clav_elev_r	scapula_abduction_r	scapula_elevation_r	scapula_upward_rot_r	scapula_winging_r	shoulder_elv_r	plane_of_elev_r	axial_rot_r	elbow_flexion_r	pro_sup_r	wrist_flex_r	wrist_dev_r	clav_prot_l	clav_elev_l	scapula_abduction_l	scapula_elevation_l	scapula_upward_rot_l	scapula_winging_l	shoulder_elv_l	plane_of_elev_l	axial_rot_l	elbow_flexion_l	pro_sup_l	wrist_flex_l	wrist_dev_l
      7.04000000	     36.95833855	     13.06312130	     19.68265170	   -146.58436302	    826.92471988	      9.33100527	     15.99231826	     37.86126439	     40.22468761	     45.00000000	    -45.00000000	  -2244.52972092	  -2625.21328326	    145.81743923	    179.99999979	   1089.98714616	     44.37990270	     21.99660611	     10.87871248	      9.52853594	    -45.00000000	    -41.94699326	     45.00000000	    -30.56567187	   1177.26964514	  -4247.00426824	     22.73764242	    -23.94850455	   1087.12484081	     23.45492521	     11.41806855	    -22.08435076
      7.05000000	     37.11266202	     12.65618894	     19.00622799	   -151.99892910	    829.16856762	      8.97209311	     15.96874222	     37.80256449	     40.20078174	     45.00000000	    -45.00000000	  -2244.79145141	  -2625.02650232	    145.83872679	    179.99999979	   1090.04434835	     44.47237350	     21.90760534	     10.70695211	      9.53427096	    -45.00000000	    -41.85188612	     45.00000000	    -30.60452144	   1177.61604082	  -4246.69655661	     22.57208237	    -24.96675604	   1087.33451243	     22.17165091	     11.39139410	    -22.13152874
      7.06000000	     37.27419002	     12.42133596	     18.55787045	   -157.39792164	    831.32814861	      8.64980734	     15.83384036	     37.86295518	     40.22881361	     45.00000000	    -45.00000000	  -2245.19993276	  -2624.96921450	    145.90117774	    179.99999979	   1090.02418299	     44.56828368	     21.86394209	     10.64942384	      9.79723240	    -45.00000000	    -41.52138438	     45.00000000	    -31.56791475	   1177.81803642	  -4246.36723234	     22.52269957	    -25.92917914	   1087.57583244	     20.60331432	     11.27747089	    -22.11890400
      7.07000000	     37.39917968	     12.03753328	     17.88283934	   -162.76833035	    833.39940779	      8.36995332	     15.80122202	     37.79931614	     40.14862115	     45.00000000	    -45.00000000	  -2245.40953551	  -2624.80566930	    145.93131403	    179.99999979	   1090.05786757	     44.62318715	     21.80207257	     10.55989813	      9.75840462	    -45.00000000	    -41.42945860	     45.00000000	    -31.68186964	   1178.14694731	  -4246.08112873	     22.36019620	    -26.80345062	   1087.72918088	     19.27112699	     11.28839660	    -22.14671881
      7.08000000	     37.53153776	     11.78602677	     17.35309865	   -168.09820660	    835.37915112	      8.13290318	     15.65287963	     37.89815343	     40.05830386	     45.00000000	    -45.00000000	  -2245.74931191	  -2624.72182152	    145.93039924	    179.99999979	   1090.07210780	     44.66339773	     21.80677100	     10.55449653	      9.85413997	    -45.00000000	    -41.15476241	     45.00000000	    -32.38444420	   1178.32769054	  -4245.82073140	     22.25268610	    -27.62738863	   1087.82824062	     17.91866826	     11.15448612	    -22.12601611
      7.09000000	     37.60720435	     11.42594977	     16.70555467	   -173.36507896	    837.26075771	      7.93793272	     15.76000990	     37.64401168	     39.90085404	     45.00000000	    -45.00000000	  -2245.79165807	  -2624.55965395	    146.04228570	    179.99999979	   1090.12573451	     44.68937784	     21.72670997	     10.46453729	      9.72224773	    -45.00000000	    -41.15652812	     45.00000000	    -32.23335389	   1178.73190993	  -4245.65334899	     22.01027908	    -28.51898932	   1087.88250224	     16.99521761	     11.22889947	    -22.17495031
      7.10000000	     37.71674962	     11.18436848	     16.15778694	   -178.55435323	    839.04092776	      7.78273540	     15.48129547	     37.88425071	     39.79067935	     45.00000000	    -45.00000000	  -2246.18833929	  -2624.52117859	    145.93236315	    179.99999979	   1090.08686820	     44.74288113	     21.81473520	     10.55135531	      9.88614925	    -45.00000000	    -40.77899316	     45.00000000	    -33.29772016	   1178.83959550	  -4245.41163402	     22.00230208	    -29.08128390	   1087.99931399	     15.93524888	     10.97508141	    -22.15544958
      7.11000000	     37.80854064	     10.99475766	     15.64823966	   -183.64118920	    840.71112449	      7.66465767	     15.24692378	     37.94206330	     39.62372738	     45.00000000	    -45.00000000	  -2246.43213299	  -2624.43860485	    145.97809296	    179.99999979	   1090.05882914	     44.82492606	     21.93711868	     10.62540426	      9.90391555	    -45.00000000	    -40.55143463	     45.00000000	    -34.12732800	   1178.93074361	  -4245.24388122	     21.91466573	    -29.32513767	   1087.91013009	     14.93085187	     10.80598679	    -22.08807384
      7.12000000	     37.80197291	     10.70412786	     15.06379904	   -188.60475218	    842.26229929	      7.58089321	     15.58229004	     37.47649412	     39.39753175	     45.00000000	    -45.00000000	  -2246.29043545	  -2624.32061563	    146.23265373	    179.99999979	   1090.16317140	     44.91858730	     21.78328600	     10.44758502	      9.71283737	    -45.00000000	    -40.63704942	     45.00000000	    -33.55663036	   1179.49078401	  -4245.18366389	     21.60272213	    -30.50797395	   1087.91428977	     14.66442468	     11.02694321	    -22.19562689
      7.13000000	     37.83082918	     10.51650601	     14.56002195	   -193.42155073	    843.68484317	      7.52866588	     15.60014320	     37.32859446	     39.18859980	     45.00000000	    -45.00000000	  -2246.38364094	  -2624.21886372	    146.30444298	    179.99999979	   1090.11880918	     45.10463536	     21.81941250	     10.43840461	      9.72544858	    -45.00000000	    -40.46946574	     45.00000000	    -34.12688086	   1179.72684990	  -4245.08467701	     21.46514322	    -31.28045905	   1087.89166379	     14.35295761	     10.88889081	    -22.19954051
